<svg width="30" height="39" viewBox="0 0 30 39" fill="none" xmlns="http://www.w3.org/2000/svg">
<path d="M15.0619 8.58455C17.4897 8.58455 19.455 6.65161 19.455 4.26385C19.455 1.87609 17.4897 0 15.0619 0C12.692 0 10.6689 1.87609 10.6689 4.26385C10.6689 6.65161 12.692 8.58455 15.0619 8.58455ZM18.7614 39V11.5408H11.4203V39H18.7614Z" fill="white"/>
<path d="M25.6069 13.8928C28.0347 13.8928 30 11.9599 30 9.57214C30 7.18438 28.0347 5.30829 25.6069 5.30829C23.237 5.30829 21.2139 7.18438 21.2139 9.57214C21.2139 11.9599 23.237 13.8928 25.6069 13.8928ZM29.3064 39V16.8491H21.9653V39H29.3064Z" fill="white"/>
<path d="M4.39306 19.448C6.82081 19.448 8.78613 17.5151 8.78613 15.1273C8.78613 12.7396 6.82081 10.8635 4.39306 10.8635C2.02312 10.8635 0 12.7396 0 15.1273C0 17.5151 2.02312 19.448 4.39306 19.448ZM8.09249 39V22.4043H0.751445V39H8.09249Z" fill="white"/>
</svg>
